[img]http://a.imageshack.us/img529/3489/kanyepower.png[/img]

[img]http://a.imageshack.us/img43/6901/kanyewestpowe3.png[/img]

[code]General
Complete name                    : Kanye West - Power [KingPinVideos].mpg
Format                           : MPEG-PS
File size                        : 32.7 MiB
Duration                         : 1mn 37s
Overall bit rate                 : 2 808 Kbps
Writing library                  : encoded by TMPGEnc 4.0 XPress Version. 4.7.4.299

Video
ID                               : 224 (0xE0)
Format                           : MPEG Video
Format version                   : Version 1
Format settings, BVOP            : Yes
Format settings, Matrix          : Default
Duration                         : 1mn 37s
Bit rate mode                    : Variable
Bit rate                         : 2 504 Kbps
Nominal bit rate                 : 2 700 Kbps
Width                            : 384 pixels
Height                           : 208 pixels
Display aspect ratio             : 16:9
Frame rate                       : 29.970 fps
Resolution                       : 8 bits
Scan type                        : Progressive
Bits/(Pixel*Frame)               : 1.046
Stream size                      : 29.2 MiB (89%)
Writing library                  : TMPGEnc XPress 4.7.4.299

Audio
ID                               : 192 (0xC0)
Format                           : MPEG Audio
Format version                   : Version 1
Format profile                   : Layer 2
Duration                         : 1mn 37s
Bit rate mode                    : Constant
Bit rate                         : 192 Kbps
Channel(s)                       : 2 channels
Sampling rate                    : 48.0 KHz
Stream size                      : 2.24 MiB (7%)
[/code]